<svg xmlns="http://www.w3.org/2000/svg" viewBox="0 0 195 42.951">
  <defs>
    <style>
      .cls-1, .cls-2 {
        fill: #36b58a;
      }

      .cls-2 {
        opacity: 0.5;
      }

      .cls-3 {
        fill: #373737;
      }
    </style>
  </defs>
  <g id="Group_82" data-name="Group 82" transform="translate(-216 -27.429)">
    <g id="Group_81" data-name="Group 81" transform="translate(216 27.429)">
      <path id="Subtraction_2" data-name="Subtraction 2" class="cls-1" d="M14.956,42.951a14.983,14.983,0,0,1-6.244-1.345c-.084-.037-.169-.078-.252-.118l-.126-.06a15.491,15.491,0,0,1-1.594-.9,14.626,14.626,0,0,1-4.972-5.485A15.628,15.628,0,0,1,0,27.811V0L5.757,1.877A3.812,3.812,0,0,1,8.393,5.51V14.2A15.077,15.077,0,0,1,30.068,27.878l0,.1a17.089,17.089,0,0,1-1.786,7.3l-.041.083L21.8,31.424a7.059,7.059,0,0,0-5.861-10.305c-.134-.008-.27-.011-.4-.011a7.055,7.055,0,0,0-.391,14.1c.134.008.27.011.4.011a7.022,7.022,0,0,0,4.835-1.923l5.83,5.06c.035.031.072.06.11.088l-.019.022-.1.1c-.179.187-.376.373-.583.553a10.205,10.205,0,0,1-1.367,1.017A17.418,17.418,0,0,1,14.956,42.951Z" transform="translate(0)"/>
      <path id="Path_28" data-name="Path 28" class="cls-2" d="M141.046,140.378h-.07a1.224,1.224,0,0,1-1.154-1.29,3.014,3.014,0,0,0-2.835-3.174,1.225,1.225,0,1,1,.136-2.447,5.464,5.464,0,0,1,5.143,5.754,1.224,1.224,0,0,1-1.22,1.157Z" transform="translate(-121.042 -110.63)"/>
      <path id="Path_74" data-name="Path 74" class="cls-3" d="M.736-4.7C.736-1.376,3.264.384,6.144.384A5.48,5.48,0,0,0,9.888-.992a5.019,5.019,0,0,0,1.12-1.344h.064a.348.348,0,0,1-.032.16,1,1,0,0,0-.032.352v.1c0,.8.576,1.728,2.208,1.728h4.768V-4H16.768a.614.614,0,0,1-.7-.7v-5.44c0-4.352-2.528-6.72-7.36-6.72a12.659,12.659,0,0,0-5.056,1.056,11.094,11.094,0,0,0-1.92,1.088l1.92,3.744a10.409,10.409,0,0,1,1.44-.8,7.92,7.92,0,0,1,3.1-.768c1.248,0,2.336.448,2.336,1.824v.48H9.536C6.976-10.24.736-9.536.736-4.7ZM6.3-5.088c0-1.472,1.952-2.048,3.776-2.048h.512v.384A3.322,3.322,0,0,1,7.776-3.616,1.394,1.394,0,0,1,6.3-5.088ZM20,0h9.7V-4h-2.08V-6.976c0-2.3,1.088-4.864,3.552-4.864,1.248,0,1.856.64,1.856,2.176V0H40.64V-4H38.56v-6.688c0-4.608-2.464-6.176-5.568-6.176A6.29,6.29,0,0,0,28.64-15.3a4.942,4.942,0,0,0-1.248,1.6h-.064a.192.192,0,0,0,.032-.128v-.8c0-1.12-.768-1.856-2.272-1.856H19.84v4h1.536a.614.614,0,0,1,.7.7V-4H20ZM42.208,0h8.8V-4H49.824V-6.464h.48a1.32,1.32,0,0,1,1.312.544l2.528,4.672A2.211,2.211,0,0,0,56.512,0h4.032V-4h-.8c-.64,0-.96-.064-1.216-.544L56.9-7.488A3.322,3.322,0,0,0,56-8.64l-.416-.32v-.064l2.848-3.456h2.016v-4H51.872v4H53.44l-1.728,2.112H49.824V-22.88H42.048v4h2.24V-4h-2.08ZM62.944,0H72.992V-4H70.56v-8.48h6.688V-4h-2.08V0h9.7V-4h-2.08V-16.48H70.56v-.8c0-1.568,1.568-1.6,2.368-1.6a8.454,8.454,0,0,1,1.024.032l.32.064v-4.352l-.544-.064c-.352-.032-.8-.064-1.408-.064-2.56,0-7.3.7-7.3,6.112v.672h-2.24v4h2.24V-4h-2.08ZM77.312-18.56H82.72v-4.32H77.312ZM87.008,0h9.7V-4h-2.08V-6.976c0-2.3,1.088-4.864,3.552-4.864,1.248,0,1.856.64,1.856,2.176V0h7.616V-4h-2.08v-6.688c0-4.608-2.464-6.176-5.568-6.176A6.29,6.29,0,0,0,95.648-15.3,4.942,4.942,0,0,0,94.4-13.7h-.064a.192.192,0,0,0,.032-.128v-.8c0-1.12-.768-1.856-2.272-1.856H86.848v4h1.536a.614.614,0,0,1,.7.7V-4h-2.08Zm22.176-8.224c0,5.12,2.88,8.608,7.264,8.608a6.029,6.029,0,0,0,4-1.376,3.961,3.961,0,0,0,1.088-1.344h.064a.348.348,0,0,1-.032.16,1,1,0,0,0-.032.352v.1c0,.8.576,1.728,2.208,1.728h4.768V-4H127.3a.614.614,0,0,1-.7-.7V-22.88h-7.776v4h2.24v2.592c0,.288.032.544.032.768v.288h-.064a2.935,2.935,0,0,0-.928-.832,6,6,0,0,0-3.3-.8C112.256-16.864,109.184-13.472,109.184-8.224Zm5.568,0c0-2.56,1.472-3.968,3.3-3.968,2.144,0,3.168,1.92,3.168,4.1,0,2.656-1.6,3.9-3.264,3.9C116.032-4.192,114.752-5.792,114.752-8.224Zm15.584-.032c0,4.384,3.168,8.64,9.056,8.64a11.661,11.661,0,0,0,5.216-1.152A11.83,11.83,0,0,0,146.5-1.92L144.48-5.76a8.407,8.407,0,0,1-1.408.768,8,8,0,0,1-3.232.8A3.626,3.626,0,0,1,136-7.232h10.464l.064-.64c.032-.352.064-.768.064-1.024,0-4.576-2.752-7.968-7.68-7.968C133.6-16.864,130.336-13.088,130.336-8.256Zm5.792-2.016a2.681,2.681,0,0,1,2.656-2.432,2.23,2.23,0,0,1,2.08,2.432ZM148.768,0h10.016V-4h-2.24V-6.4c0-3.04,1.472-4.96,4.544-4.96a5.687,5.687,0,0,1,.8.032l.32.064V-16.7a.563.563,0,0,1-.192-.032,1.575,1.575,0,0,0-.448-.032,5.72,5.72,0,0,0-5.248,4.1h-.064a.625.625,0,0,1,.032-.224,2.787,2.787,0,0,0,.032-.608v-.864c0-1.5-.832-2.112-2.336-2.112h-5.216v4H150.3a.614.614,0,0,1,.7.7V-4h-2.24Z" transform="translate(32.792 35.28)"/>
      <path id="Path_73" data-name="Path 73" class="cls-1" d="M.736-4.7C.736-1.376,3.264.384,6.144.384A5.48,5.48,0,0,0,9.888-.992a5.019,5.019,0,0,0,1.12-1.344h.064a.348.348,0,0,1-.032.16,1,1,0,0,0-.032.352v.1c0,.8.576,1.728,2.208,1.728h4.768V-4H16.768a.614.614,0,0,1-.7-.7v-5.44c0-4.352-2.528-6.72-7.36-6.72a12.659,12.659,0,0,0-5.056,1.056,11.094,11.094,0,0,0-1.92,1.088l1.92,3.744a10.409,10.409,0,0,1,1.44-.8,7.92,7.92,0,0,1,3.1-.768c1.248,0,2.336.448,2.336,1.824v.48H9.536C6.976-10.24.736-9.536.736-4.7ZM6.3-5.088c0-1.472,1.952-2.048,3.776-2.048h.512v.384A3.322,3.322,0,0,1,7.776-3.616,1.394,1.394,0,0,1,6.3-5.088ZM20,0h9.7V-4h-2.08V-6.976c0-2.3,1.088-4.864,3.552-4.864,1.248,0,1.856.64,1.856,2.176V0H40.64V-4H38.56v-6.688c0-4.608-2.464-6.176-5.568-6.176A6.29,6.29,0,0,0,28.64-15.3a4.942,4.942,0,0,0-1.248,1.6h-.064a.192.192,0,0,0,.032-.128v-.8c0-1.12-.768-1.856-2.272-1.856H19.84v4h1.536a.614.614,0,0,1,.7.7V-4H20ZM42.208,0h8.8V-4H49.824V-6.464h.48a1.32,1.32,0,0,1,1.312.544l2.528,4.672A2.211,2.211,0,0,0,56.512,0h4.032V-4h-.8c-.64,0-.96-.064-1.216-.544L56.9-7.488A3.322,3.322,0,0,0,56-8.64l-.416-.32v-.064l2.848-3.456h2.016v-4H51.872v4H53.44l-1.728,2.112H49.824V-22.88H42.048v4h2.24V-4h-2.08Z" transform="translate(32.193 35.28)"/>
    </g>
  </g>
</svg>
