<?xml version="1.0" standalone="no"?>
<!DOCTYPE svg PUBLIC "-//W3C//DTD SVG 20010904//EN"
 "http://www.w3.org/TR/2001/REC-SVG-20010904/DTD/svg10.dtd">
<svg version="1.0" xmlns="http://www.w3.org/2000/svg"
 width="100.000000pt" height="100.000000pt" viewBox="0 0 100.000000 100.000000"
 preserveAspectRatio="xMidYMid meet">
<metadata>
Created by potrace 1.11, written by Peter Selinger 2001-2013
</metadata>
<g transform="translate(0.000000,100.000000) scale(0.100000,-0.100000)"
fill="#000000" stroke="none">
<path d="M102 639 l3 -364 27 -57 c33 -71 98 -137 169 -171 128 -63 285 -60
416 7 93 47 92 44 7 109 l-77 58 -50 -22 c-92 -39 -200 -10 -247 65 -46 76
-15 177 70 221 46 25 143 25 188 2 72 -39 110 -129 83 -200 -9 -22 -4 -26 75
-65 46 -23 86 -42 89 -42 2 0 14 32 26 71 25 84 22 162 -11 233 -78 166 -290
256 -482 206 l-64 -17 1 99 c0 54 -3 110 -7 126 -9 34 -44 55 -125 76 -34 9
-69 19 -78 22 -14 6 -16 -29 -13 -357z"/>
</g>
</svg>
